<svg width="900" height="600" viewBox="0 0 900 600" fill="none" xmlns="http://www.w3.org/2000/svg">
<g clip-path="url(#clip0_506_1254)">
<path fill-rule="evenodd" clip-rule="evenodd" d="M297.448 274.58C313.79 274.58 306.144 248.638 285.439 254.834C284.293 218.814 225.642 192.459 201.389 241.042C194.532 235.61 179.135 245.87 182.545 254.834C174.928 255.484 168.936 256.366 164.274 257.534C153.509 260.232 155.64 274.458 166.736 274.359L297.448 274.58V274.58Z" fill="white" stroke="#E1E4E5" stroke-width="11"/>
<path fill-rule="evenodd" clip-rule="evenodd" d="M297.897 183.52H363.455C369.316 183.52 371.842 175.869 367.045 172.476C366.978 172.427 366.91 172.379 366.842 172.332C360.013 167.6 351.05 168.03 351.05 168.03C351.05 168.03 349.771 142.427 325.657 142.427C303.855 142.427 295.161 163.999 292.025 175.884C291.006 179.745 293.934 183.52 297.897 183.52V183.52Z" fill="white" stroke="#E1E4E5" stroke-width="4"/>
<path fill-rule="evenodd" clip-rule="evenodd" d="M199.905 180.085H243.923C247.859 180.085 249.554 174.915 246.334 172.623C246.289 172.59 246.243 172.557 246.197 172.525C241.612 169.328 235.594 169.618 235.594 169.618C235.594 169.618 234.735 152.319 218.544 152.319C203.906 152.319 198.068 166.895 195.963 174.925C195.279 177.534 197.244 180.085 199.905 180.085V180.085ZM148.448 125.389H103.494C99.474 125.389 97.743 120.22 101.032 117.927C101.078 117.894 101.124 117.861 101.171 117.83C105.854 114.632 112 114.923 112 114.923C112 114.923 112.877 97.623 129.413 97.623C144.362 97.623 150.324 112.199 152.474 120.23C153.173 122.839 151.165 125.389 148.448 125.389V125.389ZM101.326 197.737H146.28C150.299 197.737 152.031 192.361 148.742 189.976C148.696 189.942 148.649 189.908 148.602 189.875C143.919 186.55 137.774 186.852 137.774 186.852C137.774 186.852 136.896 168.86 120.361 168.86C105.411 168.86 99.449 184.019 97.299 192.371C96.601 195.084 98.608 197.737 101.326 197.737ZM303.64 111.062H217.075C210.067 111.062 207.044 102.17 212.781 98.225L213.024 98.059C221.191 92.559 231.91 93.059 231.91 93.059C231.91 93.059 233.441 63.305 262.279 63.305C276.536 63.305 288.059 87.183 288.059 87.183C288.059 87.183 307.454 87.183 310.664 102.186C311.634 106.731 308.381 111.062 303.64 111.062ZM571.621 187.962C583.675 187.962 578.035 168.773 562.764 173.356C561.918 146.712 518.658 127.217 500.77 163.154C495.713 159.136 484.356 166.725 486.871 173.356C481.253 173.837 476.833 174.49 473.395 175.354C465.455 177.349 467.027 187.872 475.21 187.799L571.621 187.962ZM719.902 183.76H785.46C791.322 183.76 793.847 176.11 789.051 172.716C788.984 172.668 788.916 172.619 788.848 172.572C782.018 167.84 773.056 168.27 773.056 168.27C773.056 168.27 771.776 142.667 747.662 142.667C725.86 142.667 717.166 164.239 714.03 176.124C713.012 179.985 715.939 183.76 719.902 183.76V183.76ZM528.912 109.108H572.929C576.865 109.108 578.56 103.938 575.34 101.645L575.204 101.548C570.618 98.351 564.6 98.641 564.6 98.641C564.6 98.641 563.741 81.342 547.55 81.342C532.912 81.342 527.075 95.918 524.969 103.948C524.285 106.557 526.251 109.108 528.912 109.108V109.108ZM646.167 152.422H601.213C597.194 152.422 595.462 147.253 598.751 144.96C598.797 144.927 598.843 144.894 598.89 144.863C603.573 141.665 609.719 141.956 609.719 141.956C609.719 141.956 610.596 124.656 627.132 124.656C642.082 124.656 648.043 139.232 650.194 147.263C650.892 149.872 648.885 152.422 646.167 152.422V152.422ZM396.253 92.181H441.207C445.227 92.181 446.958 86.805 443.669 84.421C443.623 84.3862 443.577 84.3522 443.53 84.319C438.847 80.994 432.701 81.296 432.701 81.296C432.701 81.296 431.824 63.305 415.289 63.305C400.339 63.305 394.377 78.464 392.227 86.815C391.528 89.528 393.536 92.181 396.253 92.181ZM743.35 103.554H656.785C649.777 103.554 646.754 94.663 652.491 90.718C652.571 90.663 652.653 90.606 652.734 90.552C660.901 85.052 671.62 85.551 671.62 85.551C671.62 85.551 673.151 55.797 701.989 55.797C716.246 55.797 727.769 79.676 727.769 79.676C727.769 79.676 747.164 79.676 750.374 94.679C751.344 99.224 748.091 103.554 743.35 103.554Z" fill="white" stroke="#E1E4E5" stroke-width="11"/>
<path d="M178.427 415.24L90.092 552.21H271.53L183.195 415.24C182.818 414.656 181.998 414.138 180.81 414.138C179.622 414.138 178.803 414.656 178.426 415.24H178.427ZM599.606 391.219L493.461 552.21H713.264L607.119 391.219C606.467 390.23 605.124 389.471 603.363 389.471C601.601 389.471 600.258 390.23 599.606 391.219V391.219Z" fill="white" stroke="#E1E4E5" stroke-width="11"/>
<path d="M308.254 354.592L178.148 552.21H449.446L319.341 354.592C318.289 352.995 316.251 351.935 313.797 351.935C311.343 351.935 309.305 352.995 308.254 354.592ZM696.128 397.248L589.982 558.239H809.786L703.641 397.248C702.988 396.259 701.646 395.5 699.884 395.5C698.122 395.5 696.78 396.259 696.128 397.248Z" fill="white" stroke="#E1E4E5" stroke-width="11"/>
<path d="M313.797 527.647L341.738 545.685L369.325 527.647L341.738 457.971L313.797 527.647Z" fill="white" stroke="#E1E4E5" stroke-width="11"/>
<path d="M345.47 509.609V557.71M326.897 517.159L344.232 529.542" stroke="#E1E4E5" stroke-width="11"/>
<path d="M388.87 527.647L416.811 545.685L444.398 527.647L416.811 457.971L388.87 527.647Z" fill="white" stroke="#E1E4E5" stroke-width="11"/>
<path d="M420.542 509.609V557.71M401.969 517.159L419.304 529.542" stroke="#E1E4E5" stroke-width="11"/>
<path d="M463.942 520.55L498.479 542.846L532.58 520.55L498.479 434.425L463.942 520.55V520.55Z" fill="white" stroke="#E1E4E5" stroke-width="11"/>
<path d="M501.793 498.254V557.711M479.38 508.643L500.807 523.949" stroke="#E1E4E5" stroke-width="11"/>
<path d="M654.713 160.203C644.936 202.852 598.678 229.521 550.547 218.488C502.415 207.455 472.392 163.3 482.168 120.651C491.944 78.001 538.202 51.333 586.334 62.366C634.466 73.399 664.489 117.553 654.713 160.203V160.203Z" fill="white" stroke="#E1E4E5" stroke-width="11"/>
<path d="M764.175 265.565C761.663 276.524 753.478 286.243 739.567 294.221C725.649 302.204 706.488 308.133 683.225 311.585C636.734 318.485 575.033 315.323 509.253 300.244C443.472 285.165 386.554 261.137 347.711 234.676C328.274 221.436 313.608 207.753 304.557 194.505C295.51 181.264 292.376 168.95 294.888 157.992C297.4 147.033 305.585 137.314 319.495 129.336C333.413 121.354 352.574 115.424 375.838 111.972C422.329 105.072 484.029 108.235 549.81 123.313C615.591 138.392 672.508 162.42 711.352 188.881C730.789 202.122 745.454 215.805 754.506 229.052C763.552 242.293 766.687 254.607 764.175 265.565V265.565Z" fill="white" stroke="#E1E4E5" stroke-width="11"/>
<path d="M408.102 162.055C426.177 163.128 441.199 157.763 441.655 150.072C442.112 142.38 427.83 135.275 409.756 134.203C391.681 133.13 376.659 138.495 376.203 146.186C375.746 153.878 390.028 160.983 408.102 162.055Z" fill="#E1E4E5"/>
<path d="M498.024 173.052C515.886 176.012 531.388 172.249 532.647 164.647C533.906 157.046 520.447 148.485 502.584 145.526C484.722 142.566 469.22 146.329 467.961 153.931C466.702 161.532 480.161 170.093 498.024 173.052Z" fill="#E1E4E5"/>
<path d="M588.986 200.091C605.729 206.983 621.679 206.794 624.612 199.669C627.545 192.544 616.349 181.181 599.606 174.289C582.863 167.397 566.913 167.586 563.98 174.711C561.047 181.836 572.243 193.199 588.986 200.091Z" fill="#E1E4E5"/>
<path d="M511.816 270.539C557.897 282.049 599.224 275.483 604.122 255.874C609.02 236.265 575.634 211.039 529.552 199.529C483.471 188.019 442.144 194.585 437.246 214.194C432.349 233.803 465.734 259.029 511.816 270.539Z" fill="#E1E4E5"/>
<path d="M680.531 246.303C695.69 256.204 711.395 259.001 715.608 252.55C719.821 246.099 710.948 232.844 695.789 222.943C680.63 213.042 664.925 210.245 660.712 216.696C656.499 223.147 665.372 236.402 680.531 246.303Z" fill="#E1E4E5"/>
<path d="M236.34 558.427L438.738 210.503C545.38 199.347 592.514 238.858 602.75 260.007L561.572 558.427H236.34V558.427Z" fill="#00B6FE"/>
<path d="M140.44 548.412V534.116" stroke="#E1E4E5" stroke-width="4"/>
<path d="M155.835 548.412V538.515" stroke="#E1E4E5" stroke-width="4"/>
<path d="M125.043 548.412V538.515" stroke="#E1E4E5" stroke-width="4"/>
<path d="M215.512 548.412V534.116" stroke="#E1E4E5" stroke-width="4"/>
<path d="M230.908 548.412V538.515" stroke="#E1E4E5" stroke-width="4"/>
<path d="M200.116 548.412V538.515" stroke="#E1E4E5" stroke-width="4"/>
<path d="M671.309 553.296V539" stroke="#E1E4E5" stroke-width="4"/>
<path d="M686.705 553.296V543.399" stroke="#E1E4E5" stroke-width="4"/>
<path d="M655.913 553.296V543.399" stroke="#E1E4E5" stroke-width="4"/>
<path d="M384.341 462.01C381.85 462.01 379.19 461.64 376.362 460.899C373.534 460.091 371.211 458.946 369.393 457.465C368.518 456.724 367.811 455.782 367.272 454.637C366.801 453.425 366.565 452.28 366.565 451.203C366.565 450.058 367.036 448.981 367.979 447.971C368.989 446.961 370.403 446.456 372.221 446.456C373.433 446.456 374.948 447.096 376.766 448.375C377.843 449.048 379.022 449.654 380.301 450.193C381.58 450.732 382.893 451.001 384.24 451.001C387.472 451.001 390.266 450.429 392.623 449.284C394.98 448.072 396.798 446.422 398.077 444.335C399.356 442.248 399.996 439.79 399.996 436.962C399.996 434.403 399.39 432.215 398.178 430.397C397.033 428.579 395.485 427.165 393.532 426.155C391.647 425.145 389.593 424.64 387.371 424.64C385.284 424.64 383.466 424.977 381.917 425.65C380.368 426.323 378.954 427.03 377.675 427.771C376.396 428.444 375.116 428.781 373.837 428.781C371.615 428.781 369.965 428.31 368.888 427.367C367.811 426.357 367.137 425.179 366.868 423.832C366.599 422.485 366.531 421.273 366.666 420.196L369.797 395.653C370.066 394.239 370.74 393.094 371.817 392.219C372.962 391.276 374.308 390.805 375.857 390.805H405.046C406.662 390.805 408.009 391.344 409.086 392.421C410.163 393.498 410.702 394.845 410.702 396.461C410.702 398.01 410.163 399.323 409.086 400.4C408.009 401.41 406.662 401.915 405.046 401.915H378.988L380.099 401.006L377.372 421.509L376.059 417.671C376.463 416.998 377.338 416.358 378.685 415.752C380.032 415.146 381.58 414.641 383.331 414.237C385.082 413.766 386.799 413.53 388.482 413.53C392.993 413.53 397.033 414.574 400.602 416.661C404.171 418.681 406.965 421.475 408.985 425.044C411.072 428.545 412.116 432.518 412.116 436.962C412.116 442.012 410.971 446.422 408.682 450.193C406.393 453.964 403.161 456.893 398.986 458.98C394.879 461 389.997 462.01 384.341 462.01ZM449.2 462.01C443.41 462.01 438.494 460.495 434.454 457.465C430.482 454.368 427.452 450.092 425.364 444.638C423.277 439.117 422.233 432.787 422.233 425.65C422.233 418.445 423.277 412.116 425.364 406.662C427.452 401.208 430.482 396.966 434.454 393.936C438.494 390.839 443.41 389.29 449.2 389.29C454.991 389.29 459.873 390.839 463.845 393.936C467.885 396.966 470.949 401.208 473.036 406.662C475.124 412.116 476.167 418.445 476.167 425.65C476.167 432.787 475.124 439.117 473.036 444.638C470.949 450.092 467.885 454.368 463.845 457.465C459.873 460.495 454.991 462.01 449.2 462.01ZM449.2 449.89C452.028 449.89 454.452 449.015 456.472 447.264C458.56 445.446 460.176 442.753 461.32 439.184C462.465 435.548 463.037 431.037 463.037 425.65C463.037 420.196 462.465 415.685 461.32 412.116C460.176 408.547 458.56 405.888 456.472 404.137C454.452 402.319 452.028 401.41 449.2 401.41C446.44 401.41 444.016 402.319 441.928 404.137C439.841 405.888 438.225 408.547 437.08 412.116C435.936 415.685 435.363 420.196 435.363 425.65C435.363 431.037 435.936 435.548 437.08 439.184C438.225 442.753 439.841 445.446 441.928 447.264C444.016 449.015 446.44 449.89 449.2 449.89ZM511.24 462.01C505.45 462.01 500.534 460.495 496.494 457.465C492.522 454.368 489.492 450.092 487.404 444.638C485.317 439.117 484.273 432.787 484.273 425.65C484.273 418.445 485.317 412.116 487.404 406.662C489.492 401.208 492.522 396.966 496.494 393.936C500.534 390.839 505.45 389.29 511.24 389.29C517.031 389.29 521.913 390.839 525.885 393.936C529.925 396.966 532.989 401.208 535.076 406.662C537.164 412.116 538.207 418.445 538.207 425.65C538.207 432.787 537.164 439.117 535.076 444.638C532.989 450.092 529.925 454.368 525.885 457.465C521.913 460.495 517.031 462.01 511.24 462.01ZM511.24 449.89C514.068 449.89 516.492 449.015 518.512 447.264C520.6 445.446 522.216 442.753 523.36 439.184C524.505 435.548 525.077 431.037 525.077 425.65C525.077 420.196 524.505 415.685 523.36 412.116C522.216 408.547 520.6 405.888 518.512 404.137C516.492 402.319 514.068 401.41 511.24 401.41C508.48 401.41 506.056 402.319 503.968 404.137C501.881 405.888 500.265 408.547 499.12 412.116C497.976 415.685 497.403 420.196 497.403 425.65C497.403 431.037 497.976 435.548 499.12 439.184C500.265 442.753 501.881 445.446 503.968 447.264C506.056 449.015 508.48 449.89 511.24 449.89Z" fill="white"/>
</g>
<defs>
<clipPath id="clip0_506_1254">
<rect width="900" height="600" fill="white"/>
</clipPath>
</defs>
</svg>
